<svg xmlns="http://www.w3.org/2000/svg" xmlns:rdkit="http://www.rdkit.org/xml" xmlns:xlink="http://www.w3.org/1999/xlink" version="1.1" baseProfile="full" xml:space="preserve" width="1200px" height="300px" viewBox="0 0 1200 300">
<!-- END OF HEADER -->
<rect style="opacity:1.0;fill:#FFFFFF;stroke:none" width="1200.0" height="300.0" x="0.0" y="0.0"> </rect>
<path class="bond-0 atom-0 atom-1" d="M 256.5,204.3 L 271.0,179.3" style="fill:none;fill-rule:evenodd;stroke:#000000;stroke-width:2.0px;stroke-linecap:butt;stroke-linejoin:miter;stroke-opacity:1"/>
<path class="bond-1 atom-1 atom-2" d="M 271.0,179.3 L 251.6,157.7" style="fill:none;fill-rule:evenodd;stroke:#000000;stroke-width:2.0px;stroke-linecap:butt;stroke-linejoin:miter;stroke-opacity:1"/>
<path class="bond-2 atom-2 atom-3" d="M 251.6,157.7 L 225.2,169.5" style="fill:none;fill-rule:evenodd;stroke:#000000;stroke-width:2.0px;stroke-linecap:butt;stroke-linejoin:miter;stroke-opacity:1"/>
<path class="bond-3 atom-3 atom-4" d="M 225.2,169.5 L 228.2,198.3" style="fill:none;fill-rule:evenodd;stroke:#000000;stroke-width:2.0px;stroke-linecap:butt;stroke-linejoin:miter;stroke-opacity:1"/>
<path class="bond-4 atom-4 atom-5" d="M 228.2,198.3 L 247.5,219.8" style="fill:none;fill-rule:evenodd;stroke:#000000;stroke-width:2.0px;stroke-linecap:butt;stroke-linejoin:miter;stroke-opacity:1"/>
<path class="bond-5 atom-5 atom-6" d="M 247.5,219.8 L 274.0,208.0" style="fill:none;fill-rule:evenodd;stroke:#000000;stroke-width:2.0px;stroke-linecap:butt;stroke-linejoin:miter;stroke-opacity:1"/>
<path class="bond-5 atom-5 atom-6" d="M 248.6,214.5 L 269.3,205.4" style="fill:none;fill-rule:evenodd;stroke:#000000;stroke-width:2.0px;stroke-linecap:butt;stroke-linejoin:miter;stroke-opacity:1"/>
<path class="bond-6 atom-3 atom-7" d="M 225.2,169.5 L 200.1,155.0" style="fill:none;fill-rule:evenodd;stroke:#000000;stroke-width:2.0px;stroke-linecap:butt;stroke-linejoin:miter;stroke-opacity:1"/>
<path class="bond-7 atom-7 atom-8" d="M 200.1,155.0 L 190.4,160.6" style="fill:none;fill-rule:evenodd;stroke:#000000;stroke-width:2.0px;stroke-linecap:butt;stroke-linejoin:miter;stroke-opacity:1"/>
<path class="bond-7 atom-7 atom-8" d="M 190.4,160.6 L 180.6,166.2" style="fill:none;fill-rule:evenodd;stroke:#0000FF;stroke-width:2.0px;stroke-linecap:butt;stroke-linejoin:miter;stroke-opacity:1"/>
<path class="bond-8 atom-8 atom-9" d="M 169.4,166.2 L 159.7,160.6" style="fill:none;fill-rule:evenodd;stroke:#0000FF;stroke-width:2.0px;stroke-linecap:butt;stroke-linejoin:miter;stroke-opacity:1"/>
<path class="bond-8 atom-8 atom-9" d="M 159.7,160.6 L 150.0,154.9" style="fill:none;fill-rule:evenodd;stroke:#000000;stroke-width:2.0px;stroke-linecap:butt;stroke-linejoin:miter;stroke-opacity:1"/>
<path class="bond-9 atom-9 atom-10" d="M 150.0,154.9 L 124.9,169.4" style="fill:none;fill-rule:evenodd;stroke:#000000;stroke-width:2.0px;stroke-linecap:butt;stroke-linejoin:miter;stroke-opacity:1"/>
<path class="bond-9 atom-9 atom-10" d="M 145.6,152.4 L 124.9,164.4" style="fill:none;fill-rule:evenodd;stroke:#000000;stroke-width:2.0px;stroke-linecap:butt;stroke-linejoin:miter;stroke-opacity:1"/>
<path class="bond-10 atom-10 atom-11" d="M 124.9,169.4 L 99.9,154.9" style="fill:none;fill-rule:evenodd;stroke:#000000;stroke-width:2.0px;stroke-linecap:butt;stroke-linejoin:miter;stroke-opacity:1"/>
<path class="bond-11 atom-11 atom-12" d="M 99.9,154.9 L 99.9,126.0" style="fill:none;fill-rule:evenodd;stroke:#000000;stroke-width:2.0px;stroke-linecap:butt;stroke-linejoin:miter;stroke-opacity:1"/>
<path class="bond-11 atom-11 atom-12" d="M 104.2,152.4 L 104.2,128.5" style="fill:none;fill-rule:evenodd;stroke:#000000;stroke-width:2.0px;stroke-linecap:butt;stroke-linejoin:miter;stroke-opacity:1"/>
<path class="bond-12 atom-12 atom-13" d="M 99.9,126.0 L 124.9,111.5" style="fill:none;fill-rule:evenodd;stroke:#000000;stroke-width:2.0px;stroke-linecap:butt;stroke-linejoin:miter;stroke-opacity:1"/>
<path class="bond-13 atom-13 atom-14" d="M 124.9,111.5 L 150.0,126.0" style="fill:none;fill-rule:evenodd;stroke:#000000;stroke-width:2.0px;stroke-linecap:butt;stroke-linejoin:miter;stroke-opacity:1"/>
<path class="bond-13 atom-13 atom-14" d="M 124.9,116.5 L 145.7,128.5" style="fill:none;fill-rule:evenodd;stroke:#000000;stroke-width:2.0px;stroke-linecap:butt;stroke-linejoin:miter;stroke-opacity:1"/>
<path class="bond-14 atom-14 atom-15" d="M 150.0,126.0 L 160.1,120.2" style="fill:none;fill-rule:evenodd;stroke:#000000;stroke-width:2.0px;stroke-linecap:butt;stroke-linejoin:miter;stroke-opacity:1"/>
<path class="bond-14 atom-14 atom-15" d="M 160.1,120.2 L 170.2,114.4" style="fill:none;fill-rule:evenodd;stroke:#CCCC00;stroke-width:2.0px;stroke-linecap:butt;stroke-linejoin:miter;stroke-opacity:1"/>
<path class="bond-15 atom-15 atom-16" d="M 181.6,107.1 L 185.4,102.6" style="fill:none;fill-rule:evenodd;stroke:#CCCC00;stroke-width:2.0px;stroke-linecap:butt;stroke-linejoin:miter;stroke-opacity:1"/>
<path class="bond-15 atom-15 atom-16" d="M 185.4,102.6 L 189.2,98.2" style="fill:none;fill-rule:evenodd;stroke:#FF0000;stroke-width:2.0px;stroke-linecap:butt;stroke-linejoin:miter;stroke-opacity:1"/>
<path class="bond-15 atom-15 atom-16" d="M 178.3,104.3 L 182.1,99.9" style="fill:none;fill-rule:evenodd;stroke:#CCCC00;stroke-width:2.0px;stroke-linecap:butt;stroke-linejoin:miter;stroke-opacity:1"/>
<path class="bond-15 atom-15 atom-16" d="M 182.1,99.9 L 185.8,95.4" style="fill:none;fill-rule:evenodd;stroke:#FF0000;stroke-width:2.0px;stroke-linecap:butt;stroke-linejoin:miter;stroke-opacity:1"/>
<path class="bond-16 atom-15 atom-17" d="M 171.8,104.3 L 168.1,99.8" style="fill:none;fill-rule:evenodd;stroke:#CCCC00;stroke-width:2.0px;stroke-linecap:butt;stroke-linejoin:miter;stroke-opacity:1"/>
<path class="bond-16 atom-15 atom-17" d="M 168.1,99.8 L 164.3,95.3" style="fill:none;fill-rule:evenodd;stroke:#FF0000;stroke-width:2.0px;stroke-linecap:butt;stroke-linejoin:miter;stroke-opacity:1"/>
<path class="bond-16 atom-15 atom-17" d="M 168.5,107.1 L 164.8,102.6" style="fill:none;fill-rule:evenodd;stroke:#CCCC00;stroke-width:2.0px;stroke-linecap:butt;stroke-linejoin:miter;stroke-opacity:1"/>
<path class="bond-16 atom-15 atom-17" d="M 164.8,102.6 L 161.0,98.1" style="fill:none;fill-rule:evenodd;stroke:#FF0000;stroke-width:2.0px;stroke-linecap:butt;stroke-linejoin:miter;stroke-opacity:1"/>
<path class="bond-17 atom-15 atom-18" d="M 180.0,114.4 L 187.2,118.6" style="fill:none;fill-rule:evenodd;stroke:#CCCC00;stroke-width:2.0px;stroke-linecap:butt;stroke-linejoin:miter;stroke-opacity:1"/>
<path class="bond-17 atom-15 atom-18" d="M 187.2,118.6 L 194.5,122.8" style="fill:none;fill-rule:evenodd;stroke:#0000FF;stroke-width:2.0px;stroke-linecap:butt;stroke-linejoin:miter;stroke-opacity:1"/>
<path class="bond-18 atom-12 atom-19" d="M 99.9,126.0 L 89.8,120.1" style="fill:none;fill-rule:evenodd;stroke:#000000;stroke-width:2.0px;stroke-linecap:butt;stroke-linejoin:miter;stroke-opacity:1"/>
<path class="bond-18 atom-12 atom-19" d="M 89.8,120.1 L 79.7,114.3" style="fill:none;fill-rule:evenodd;stroke:#CCCC00;stroke-width:2.0px;stroke-linecap:butt;stroke-linejoin:miter;stroke-opacity:1"/>
<path class="bond-19 atom-19 atom-20" d="M 80.8,105.5 L 83.9,100.2" style="fill:none;fill-rule:evenodd;stroke:#CCCC00;stroke-width:2.0px;stroke-linecap:butt;stroke-linejoin:miter;stroke-opacity:1"/>
<path class="bond-19 atom-19 atom-20" d="M 83.9,100.2 L 86.9,94.9" style="fill:none;fill-rule:evenodd;stroke:#FF0000;stroke-width:2.0px;stroke-linecap:butt;stroke-linejoin:miter;stroke-opacity:1"/>
<path class="bond-19 atom-19 atom-20" d="M 77.0,103.3 L 80.1,98.0" style="fill:none;fill-rule:evenodd;stroke:#CCCC00;stroke-width:2.0px;stroke-linecap:butt;stroke-linejoin:miter;stroke-opacity:1"/>
<path class="bond-19 atom-19 atom-20" d="M 80.1,98.0 L 83.2,92.7" style="fill:none;fill-rule:evenodd;stroke:#FF0000;stroke-width:2.0px;stroke-linecap:butt;stroke-linejoin:miter;stroke-opacity:1"/>
<path class="bond-20 atom-19 atom-21" d="M 68.7,117.8 L 65.6,123.0" style="fill:none;fill-rule:evenodd;stroke:#CCCC00;stroke-width:2.0px;stroke-linecap:butt;stroke-linejoin:miter;stroke-opacity:1"/>
<path class="bond-20 atom-19 atom-21" d="M 65.6,123.0 L 62.6,128.3" style="fill:none;fill-rule:evenodd;stroke:#FF0000;stroke-width:2.0px;stroke-linecap:butt;stroke-linejoin:miter;stroke-opacity:1"/>
<path class="bond-20 atom-19 atom-21" d="M 72.4,120.0 L 69.4,125.2" style="fill:none;fill-rule:evenodd;stroke:#CCCC00;stroke-width:2.0px;stroke-linecap:butt;stroke-linejoin:miter;stroke-opacity:1"/>
<path class="bond-20 atom-19 atom-21" d="M 69.4,125.2 L 66.4,130.4" style="fill:none;fill-rule:evenodd;stroke:#FF0000;stroke-width:2.0px;stroke-linecap:butt;stroke-linejoin:miter;stroke-opacity:1"/>
<path class="bond-21 atom-19 atom-22" d="M 69.9,108.6 L 62.7,104.4" style="fill:none;fill-rule:evenodd;stroke:#CCCC00;stroke-width:2.0px;stroke-linecap:butt;stroke-linejoin:miter;stroke-opacity:1"/>
<path class="bond-21 atom-19 atom-22" d="M 62.7,104.4 L 55.4,100.2" style="fill:none;fill-rule:evenodd;stroke:#0000FF;stroke-width:2.0px;stroke-linecap:butt;stroke-linejoin:miter;stroke-opacity:1"/>
<path class="bond-22 atom-11 atom-23" d="M 99.9,154.9 L 88.2,161.6" style="fill:none;fill-rule:evenodd;stroke:#000000;stroke-width:2.0px;stroke-linecap:butt;stroke-linejoin:miter;stroke-opacity:1"/>
<path class="bond-22 atom-11 atom-23" d="M 88.2,161.6 L 76.5,168.4" style="fill:none;fill-rule:evenodd;stroke:#00CC00;stroke-width:2.0px;stroke-linecap:butt;stroke-linejoin:miter;stroke-opacity:1"/>
<path class="bond-23 atom-4 atom-0" d="M 228.2,198.3 L 256.5,204.3" style="fill:none;fill-rule:evenodd;stroke:#000000;stroke-width:2.0px;stroke-linecap:butt;stroke-linejoin:miter;stroke-opacity:1"/>
<path class="bond-24 atom-6 atom-1" d="M 274.0,208.0 L 271.0,179.3" style="fill:none;fill-rule:evenodd;stroke:#000000;stroke-width:2.0px;stroke-linecap:butt;stroke-linejoin:miter;stroke-opacity:1"/>
<path class="bond-25 atom-18 atom-7" d="M 200.1,133.2 L 200.1,144.1" style="fill:none;fill-rule:evenodd;stroke:#0000FF;stroke-width:2.0px;stroke-linecap:butt;stroke-linejoin:miter;stroke-opacity:1"/>
<path class="bond-25 atom-18 atom-7" d="M 200.1,144.1 L 200.1,155.0" style="fill:none;fill-rule:evenodd;stroke:#000000;stroke-width:2.0px;stroke-linecap:butt;stroke-linejoin:miter;stroke-opacity:1"/>
<path class="bond-26 atom-14 atom-9" d="M 150.0,126.0 L 150.0,154.9" style="fill:none;fill-rule:evenodd;stroke:#000000;stroke-width:2.0px;stroke-linecap:butt;stroke-linejoin:miter;stroke-opacity:1"/>
<path d="M 257.2,203.1 L 256.5,204.3 L 255.0,204.0" style="fill:none;stroke:#000000;stroke-width:2.0px;stroke-linecap:butt;stroke-linejoin:miter;stroke-opacity:1;"/>
<path d="M 252.6,158.8 L 251.6,157.7 L 250.3,158.3" style="fill:none;stroke:#000000;stroke-width:2.0px;stroke-linecap:butt;stroke-linejoin:miter;stroke-opacity:1;"/>
<path d="M 246.5,218.7 L 247.5,219.8 L 248.8,219.2" style="fill:none;stroke:#000000;stroke-width:2.0px;stroke-linecap:butt;stroke-linejoin:miter;stroke-opacity:1;"/>
<path d="M 272.6,208.6 L 274.0,208.0 L 273.8,206.6" style="fill:none;stroke:#000000;stroke-width:2.0px;stroke-linecap:butt;stroke-linejoin:miter;stroke-opacity:1;"/>
<path d="M 126.2,168.7 L 124.9,169.4 L 123.7,168.7" style="fill:none;stroke:#000000;stroke-width:2.0px;stroke-linecap:butt;stroke-linejoin:miter;stroke-opacity:1;"/>
<path d="M 123.7,112.2 L 124.9,111.5 L 126.2,112.2" style="fill:none;stroke:#000000;stroke-width:2.0px;stroke-linecap:butt;stroke-linejoin:miter;stroke-opacity:1;"/>
<path class="atom-8" d="M 172.3 163.3 L 176.3 169.8 Q 176.7 170.5, 177.4 171.6 Q 178.0 172.8, 178.1 172.8 L 178.1 163.3 L 179.7 163.3 L 179.7 175.6 L 178.0 175.6 L 173.7 168.5 Q 173.2 167.6, 172.6 166.7 Q 172.1 165.7, 172.0 165.4 L 172.0 175.6 L 170.4 175.6 L 170.4 163.3 L 172.3 163.3 " fill="#0000FF"/>
<path class="atom-8" d="M 170.2 176.8 L 171.9 176.8 L 171.9 182.0 L 178.2 182.0 L 178.2 176.8 L 179.8 176.8 L 179.8 189.1 L 178.2 189.1 L 178.2 183.4 L 171.9 183.4 L 171.9 189.1 L 170.2 189.1 L 170.2 176.8 " fill="#0000FF"/>
<path class="atom-15" d="M 171.6 115.8 Q 171.7 115.8, 172.3 116.1 Q 172.9 116.3, 173.5 116.5 Q 174.2 116.6, 174.8 116.6 Q 175.9 116.6, 176.6 116.1 Q 177.3 115.5, 177.3 114.5 Q 177.3 113.8, 177.0 113.4 Q 176.6 113.0, 176.1 112.8 Q 175.6 112.5, 174.7 112.3 Q 173.6 111.9, 173.0 111.6 Q 172.3 111.3, 171.8 110.7 Q 171.4 110.0, 171.4 108.9 Q 171.4 107.3, 172.4 106.4 Q 173.5 105.4, 175.6 105.4 Q 177.0 105.4, 178.6 106.1 L 178.2 107.4 Q 176.7 106.8, 175.6 106.8 Q 174.4 106.8, 173.8 107.3 Q 173.1 107.8, 173.1 108.7 Q 173.1 109.3, 173.5 109.7 Q 173.8 110.1, 174.3 110.4 Q 174.8 110.6, 175.6 110.8 Q 176.7 111.2, 177.4 111.5 Q 178.1 111.9, 178.5 112.6 Q 179.0 113.3, 179.0 114.5 Q 179.0 116.2, 177.9 117.1 Q 176.7 118.0, 174.9 118.0 Q 173.8 118.0, 172.9 117.8 Q 172.1 117.6, 171.1 117.2 L 171.6 115.8 " fill="#CCCC00"/>
<path class="atom-16" d="M 188.1 89.4 Q 188.1 86.5, 189.5 84.8 Q 191.0 83.2, 193.7 83.2 Q 196.4 83.2, 197.9 84.8 Q 199.3 86.5, 199.3 89.4 Q 199.3 92.4, 197.9 94.1 Q 196.4 95.8, 193.7 95.8 Q 191.0 95.8, 189.5 94.1 Q 188.1 92.4, 188.1 89.4 M 193.7 94.4 Q 195.6 94.4, 196.6 93.2 Q 197.6 91.9, 197.6 89.4 Q 197.6 87.0, 196.6 85.8 Q 195.6 84.6, 193.7 84.6 Q 191.8 84.6, 190.8 85.8 Q 189.8 87.0, 189.8 89.4 Q 189.8 91.9, 190.8 93.2 Q 191.8 94.4, 193.7 94.4 " fill="#FF0000"/>
<path class="atom-17" d="M 150.8 89.4 Q 150.8 86.5, 152.3 84.8 Q 153.8 83.2, 156.5 83.2 Q 159.2 83.2, 160.7 84.8 Q 162.1 86.5, 162.1 89.4 Q 162.1 92.4, 160.7 94.1 Q 159.2 95.8, 156.5 95.8 Q 153.8 95.8, 152.3 94.1 Q 150.8 92.4, 150.8 89.4 M 156.5 94.4 Q 158.4 94.4, 159.4 93.1 Q 160.4 91.9, 160.4 89.4 Q 160.4 87.0, 159.4 85.8 Q 158.4 84.5, 156.5 84.5 Q 154.6 84.5, 153.6 85.8 Q 152.6 87.0, 152.6 89.4 Q 152.6 91.9, 153.6 93.1 Q 154.6 94.4, 156.5 94.4 " fill="#FF0000"/>
<path class="atom-18" d="M 197.4 119.9 L 201.4 126.4 Q 201.8 127.1, 202.5 128.2 Q 203.1 129.4, 203.2 129.5 L 203.2 119.9 L 204.8 119.9 L 204.8 132.2 L 203.1 132.2 L 198.8 125.1 Q 198.3 124.2, 197.7 123.3 Q 197.2 122.3, 197.1 122.0 L 197.1 132.2 L 195.5 132.2 L 195.5 119.9 L 197.4 119.9 " fill="#0000FF"/>
<path class="atom-18" d="M 207.2 119.9 L 208.8 119.9 L 208.8 125.1 L 215.1 125.1 L 215.1 119.9 L 216.8 119.9 L 216.8 132.2 L 215.1 132.2 L 215.1 126.5 L 208.8 126.5 L 208.8 132.2 L 207.2 132.2 L 207.2 119.9 " fill="#0000FF"/>
<path class="atom-19" d="M 71.3 115.7 Q 71.5 115.8, 72.1 116.0 Q 72.6 116.2, 73.3 116.4 Q 73.9 116.5, 74.5 116.5 Q 75.7 116.5, 76.4 116.0 Q 77.0 115.4, 77.0 114.4 Q 77.0 113.7, 76.7 113.3 Q 76.4 112.9, 75.8 112.7 Q 75.3 112.5, 74.5 112.2 Q 73.4 111.9, 72.7 111.5 Q 72.1 111.2, 71.6 110.6 Q 71.1 109.9, 71.1 108.8 Q 71.1 107.3, 72.2 106.3 Q 73.2 105.3, 75.3 105.3 Q 76.7 105.3, 78.4 106.0 L 78.0 107.4 Q 76.5 106.8, 75.4 106.8 Q 74.2 106.8, 73.5 107.3 Q 72.9 107.7, 72.9 108.6 Q 72.9 109.3, 73.2 109.7 Q 73.6 110.1, 74.0 110.3 Q 74.5 110.5, 75.4 110.8 Q 76.5 111.1, 77.1 111.5 Q 77.8 111.8, 78.3 112.5 Q 78.8 113.2, 78.8 114.4 Q 78.8 116.1, 77.6 117.0 Q 76.5 117.9, 74.6 117.9 Q 73.5 117.9, 72.7 117.7 Q 71.9 117.5, 70.9 117.1 L 71.3 115.7 " fill="#CCCC00"/>
<path class="atom-20" d="M 83.7 86.5 Q 83.7 83.5, 85.1 81.9 Q 86.6 80.2, 89.3 80.2 Q 92.0 80.2, 93.5 81.9 Q 95.0 83.5, 95.0 86.5 Q 95.0 89.4, 93.5 91.1 Q 92.0 92.8, 89.3 92.8 Q 86.6 92.8, 85.1 91.1 Q 83.7 89.5, 83.7 86.5 M 89.3 91.4 Q 91.2 91.4, 92.2 90.2 Q 93.2 88.9, 93.2 86.5 Q 93.2 84.0, 92.2 82.8 Q 91.2 81.6, 89.3 81.6 Q 87.4 81.6, 86.4 82.8 Q 85.4 84.0, 85.4 86.5 Q 85.4 88.9, 86.4 90.2 Q 87.4 91.4, 89.3 91.4 " fill="#FF0000"/>
<path class="atom-21" d="M 54.7 136.6 Q 54.7 133.6, 56.1 132.0 Q 57.6 130.3, 60.3 130.3 Q 63.1 130.3, 64.5 132.0 Q 66.0 133.6, 66.0 136.6 Q 66.0 139.6, 64.5 141.3 Q 63.0 142.9, 60.3 142.9 Q 57.6 142.9, 56.1 141.3 Q 54.7 139.6, 54.7 136.6 M 60.3 141.5 Q 62.2 141.5, 63.2 140.3 Q 64.2 139.0, 64.2 136.6 Q 64.2 134.2, 63.2 132.9 Q 62.2 131.7, 60.3 131.7 Q 58.5 131.7, 57.4 132.9 Q 56.4 134.1, 56.4 136.6 Q 56.4 139.0, 57.4 140.3 Q 58.5 141.5, 60.3 141.5 " fill="#FF0000"/>
<path class="atom-22" d="M 26.0 90.8 L 27.7 90.8 L 27.7 96.1 L 34.0 96.1 L 34.0 90.8 L 35.7 90.8 L 35.7 103.1 L 34.0 103.1 L 34.0 97.5 L 27.7 97.5 L 27.7 103.1 L 26.0 103.1 L 26.0 90.8 " fill="#0000FF"/>
<path class="atom-22" d="M 38.1 102.7 Q 38.4 101.9, 39.1 101.5 Q 39.8 101.1, 40.8 101.1 Q 42.0 101.1, 42.7 101.7 Q 43.4 102.4, 43.4 103.6 Q 43.4 104.8, 42.5 105.9 Q 41.6 107.0, 39.8 108.4 L 43.5 108.4 L 43.5 109.3 L 38.0 109.3 L 38.0 108.5 Q 39.6 107.4, 40.5 106.6 Q 41.4 105.8, 41.8 105.1 Q 42.2 104.4, 42.2 103.6 Q 42.2 102.9, 41.8 102.4 Q 41.4 102.0, 40.8 102.0 Q 40.1 102.0, 39.7 102.3 Q 39.2 102.5, 38.9 103.1 L 38.1 102.7 " fill="#0000FF"/>
<path class="atom-22" d="M 47.1 90.8 L 51.1 97.3 Q 51.5 98.0, 52.1 99.2 Q 52.8 100.3, 52.8 100.4 L 52.8 90.8 L 54.4 90.8 L 54.4 103.1 L 52.7 103.1 L 48.4 96.0 Q 47.9 95.2, 47.4 94.2 Q 46.9 93.3, 46.7 93.0 L 46.7 103.1 L 45.1 103.1 L 45.1 90.8 L 47.1 90.8 " fill="#0000FF"/>
<path class="atom-23" d="M 63.2 169.8 Q 63.2 166.7, 64.7 165.1 Q 66.1 163.5, 68.8 163.5 Q 71.4 163.5, 72.7 165.3 L 71.6 166.2 Q 70.6 164.9, 68.8 164.9 Q 67.0 164.9, 66.0 166.2 Q 65.0 167.4, 65.0 169.8 Q 65.0 172.2, 66.0 173.5 Q 67.0 174.7, 69.0 174.7 Q 70.4 174.7, 72.0 173.9 L 72.5 175.2 Q 71.8 175.6, 70.8 175.9 Q 69.9 176.1, 68.8 176.1 Q 66.1 176.1, 64.7 174.5 Q 63.2 172.8, 63.2 169.8 " fill="#00CC00"/>
<path class="atom-23" d="M 74.0 162.8 L 75.6 162.8 L 75.6 176.0 L 74.0 176.0 L 74.0 162.8 " fill="#00CC00"/>
<path class="bond-0 atom-0 atom-1" d="M 346.1,120.5 L 371.1,135.0" style="fill:none;fill-rule:evenodd;stroke:#000000;stroke-width:2.0px;stroke-linecap:butt;stroke-linejoin:miter;stroke-opacity:1"/>
<path class="bond-1 atom-1 atom-2" d="M 371.1,135.0 L 371.0,163.9" style="fill:none;fill-rule:evenodd;stroke:#000000;stroke-width:2.0px;stroke-linecap:butt;stroke-linejoin:miter;stroke-opacity:1"/>
<path class="bond-1 atom-1 atom-2" d="M 375.4,137.5 L 375.4,161.4" style="fill:none;fill-rule:evenodd;stroke:#000000;stroke-width:2.0px;stroke-linecap:butt;stroke-linejoin:miter;stroke-opacity:1"/>
<path class="bond-2 atom-2 atom-3" d="M 371.0,163.9 L 396.1,178.4" style="fill:none;fill-rule:evenodd;stroke:#000000;stroke-width:2.0px;stroke-linecap:butt;stroke-linejoin:miter;stroke-opacity:1"/>
<path class="bond-3 atom-3 atom-4" d="M 396.1,178.4 L 421.2,164.0" style="fill:none;fill-rule:evenodd;stroke:#000000;stroke-width:2.0px;stroke-linecap:butt;stroke-linejoin:miter;stroke-opacity:1"/>
<path class="bond-3 atom-3 atom-4" d="M 396.1,173.4 L 416.8,161.5" style="fill:none;fill-rule:evenodd;stroke:#000000;stroke-width:2.0px;stroke-linecap:butt;stroke-linejoin:miter;stroke-opacity:1"/>
<path class="bond-4 atom-4 atom-5" d="M 421.2,164.0 L 421.2,135.1" style="fill:none;fill-rule:evenodd;stroke:#000000;stroke-width:2.0px;stroke-linecap:butt;stroke-linejoin:miter;stroke-opacity:1"/>
<path class="bond-5 atom-5 atom-6" d="M 421.2,135.1 L 396.2,120.6" style="fill:none;fill-rule:evenodd;stroke:#000000;stroke-width:2.0px;stroke-linecap:butt;stroke-linejoin:miter;stroke-opacity:1"/>
<path class="bond-5 atom-5 atom-6" d="M 416.9,137.6 L 396.2,125.6" style="fill:none;fill-rule:evenodd;stroke:#000000;stroke-width:2.0px;stroke-linecap:butt;stroke-linejoin:miter;stroke-opacity:1"/>
<path class="bond-6 atom-4 atom-7" d="M 421.2,164.0 L 431.2,169.9" style="fill:none;fill-rule:evenodd;stroke:#000000;stroke-width:2.0px;stroke-linecap:butt;stroke-linejoin:miter;stroke-opacity:1"/>
<path class="bond-6 atom-4 atom-7" d="M 431.2,169.9 L 441.3,175.7" style="fill:none;fill-rule:evenodd;stroke:#CCCC00;stroke-width:2.0px;stroke-linecap:butt;stroke-linejoin:miter;stroke-opacity:1"/>
<path class="bond-7 atom-7 atom-8" d="M 440.0,184.9 L 437.0,190.1" style="fill:none;fill-rule:evenodd;stroke:#CCCC00;stroke-width:2.0px;stroke-linecap:butt;stroke-linejoin:miter;stroke-opacity:1"/>
<path class="bond-7 atom-7 atom-8" d="M 437.0,190.1 L 434.0,195.3" style="fill:none;fill-rule:evenodd;stroke:#FF0000;stroke-width:2.0px;stroke-linecap:butt;stroke-linejoin:miter;stroke-opacity:1"/>
<path class="bond-7 atom-7 atom-8" d="M 443.8,187.0 L 440.8,192.3" style="fill:none;fill-rule:evenodd;stroke:#CCCC00;stroke-width:2.0px;stroke-linecap:butt;stroke-linejoin:miter;stroke-opacity:1"/>
<path class="bond-7 atom-7 atom-8" d="M 440.8,192.3 L 437.7,197.5" style="fill:none;fill-rule:evenodd;stroke:#FF0000;stroke-width:2.0px;stroke-linecap:butt;stroke-linejoin:miter;stroke-opacity:1"/>
<path class="bond-8 atom-7 atom-9" d="M 452.2,172.5 L 455.3,167.3" style="fill:none;fill-rule:evenodd;stroke:#CCCC00;stroke-width:2.0px;stroke-linecap:butt;stroke-linejoin:miter;stroke-opacity:1"/>
<path class="bond-8 atom-7 atom-9" d="M 455.3,167.3 L 458.3,162.0" style="fill:none;fill-rule:evenodd;stroke:#FF0000;stroke-width:2.0px;stroke-linecap:butt;stroke-linejoin:miter;stroke-opacity:1"/>
<path class="bond-8 atom-7 atom-9" d="M 448.4,170.4 L 451.5,165.1" style="fill:none;fill-rule:evenodd;stroke:#CCCC00;stroke-width:2.0px;stroke-linecap:butt;stroke-linejoin:miter;stroke-opacity:1"/>
<path class="bond-8 atom-7 atom-9" d="M 451.5,165.1 L 454.6,159.8" style="fill:none;fill-rule:evenodd;stroke:#FF0000;stroke-width:2.0px;stroke-linecap:butt;stroke-linejoin:miter;stroke-opacity:1"/>
<path class="bond-9 atom-7 atom-10" d="M 451.1,181.4 L 458.4,185.6" style="fill:none;fill-rule:evenodd;stroke:#CCCC00;stroke-width:2.0px;stroke-linecap:butt;stroke-linejoin:miter;stroke-opacity:1"/>
<path class="bond-9 atom-7 atom-10" d="M 458.4,185.6 L 465.6,189.8" style="fill:none;fill-rule:evenodd;stroke:#0000FF;stroke-width:2.0px;stroke-linecap:butt;stroke-linejoin:miter;stroke-opacity:1"/>
<path class="bond-10 atom-10 atom-11" d="M 476.9,189.8 L 486.6,184.2" style="fill:none;fill-rule:evenodd;stroke:#0000FF;stroke-width:2.0px;stroke-linecap:butt;stroke-linejoin:miter;stroke-opacity:1"/>
<path class="bond-10 atom-10 atom-11" d="M 486.6,184.2 L 496.3,178.6" style="fill:none;fill-rule:evenodd;stroke:#000000;stroke-width:2.0px;stroke-linecap:butt;stroke-linejoin:miter;stroke-opacity:1"/>
<path class="bond-11 atom-11 atom-12" d="M 496.3,178.6 L 496.4,149.7" style="fill:none;fill-rule:evenodd;stroke:#000000;stroke-width:2.0px;stroke-linecap:butt;stroke-linejoin:miter;stroke-opacity:1"/>
<path class="bond-12 atom-12 atom-13" d="M 496.4,149.7 L 471.4,135.2" style="fill:none;fill-rule:evenodd;stroke:#000000;stroke-width:2.0px;stroke-linecap:butt;stroke-linejoin:miter;stroke-opacity:1"/>
<path class="bond-13 atom-13 atom-14" d="M 471.4,135.2 L 471.4,106.2" style="fill:none;fill-rule:evenodd;stroke:#000000;stroke-width:2.0px;stroke-linecap:butt;stroke-linejoin:miter;stroke-opacity:1"/>
<path class="bond-14 atom-14 atom-15" d="M 471.4,106.2 L 446.4,91.7" style="fill:none;fill-rule:evenodd;stroke:#000000;stroke-width:2.0px;stroke-linecap:butt;stroke-linejoin:miter;stroke-opacity:1"/>
<path class="bond-15 atom-15 atom-16" d="M 446.4,91.7 L 446.4,80.8" style="fill:none;fill-rule:evenodd;stroke:#000000;stroke-width:2.0px;stroke-linecap:butt;stroke-linejoin:miter;stroke-opacity:1"/>
<path class="bond-15 atom-15 atom-16" d="M 446.4,80.8 L 446.4,69.9" style="fill:none;fill-rule:evenodd;stroke:#0000FF;stroke-width:2.0px;stroke-linecap:butt;stroke-linejoin:miter;stroke-opacity:1"/>
<path class="bond-16 atom-11 atom-17" d="M 496.3,178.6 L 521.4,193.2" style="fill:none;fill-rule:evenodd;stroke:#000000;stroke-width:2.0px;stroke-linecap:butt;stroke-linejoin:miter;stroke-opacity:1"/>
<path class="bond-17 atom-17 atom-18" d="M 521.4,195.7 L 531.2,190.0" style="fill:none;fill-rule:evenodd;stroke:#000000;stroke-width:2.0px;stroke-linecap:butt;stroke-linejoin:miter;stroke-opacity:1"/>
<path class="bond-17 atom-17 atom-18" d="M 531.2,190.0 L 540.9,184.4" style="fill:none;fill-rule:evenodd;stroke:#FF0000;stroke-width:2.0px;stroke-linecap:butt;stroke-linejoin:miter;stroke-opacity:1"/>
<path class="bond-17 atom-17 atom-18" d="M 519.2,191.9 L 529.0,186.3" style="fill:none;fill-rule:evenodd;stroke:#000000;stroke-width:2.0px;stroke-linecap:butt;stroke-linejoin:miter;stroke-opacity:1"/>
<path class="bond-17 atom-17 atom-18" d="M 529.0,186.3 L 538.8,180.7" style="fill:none;fill-rule:evenodd;stroke:#FF0000;stroke-width:2.0px;stroke-linecap:butt;stroke-linejoin:miter;stroke-opacity:1"/>
<path class="bond-18 atom-17 atom-19" d="M 521.4,193.2 L 521.3,222.1" style="fill:none;fill-rule:evenodd;stroke:#000000;stroke-width:2.0px;stroke-linecap:butt;stroke-linejoin:miter;stroke-opacity:1"/>
<path class="bond-19 atom-19 atom-20" d="M 521.3,222.1 L 531.0,227.7" style="fill:none;fill-rule:evenodd;stroke:#000000;stroke-width:2.0px;stroke-linecap:butt;stroke-linejoin:miter;stroke-opacity:1"/>
<path class="bond-19 atom-19 atom-20" d="M 531.0,227.7 L 540.6,233.3" style="fill:none;fill-rule:evenodd;stroke:#00CC00;stroke-width:2.0px;stroke-linecap:butt;stroke-linejoin:miter;stroke-opacity:1"/>
<path class="bond-20 atom-6 atom-1" d="M 396.2,120.6 L 371.1,135.0" style="fill:none;fill-rule:evenodd;stroke:#000000;stroke-width:2.0px;stroke-linecap:butt;stroke-linejoin:miter;stroke-opacity:1"/>
<path d="M 371.0,162.5 L 371.0,163.9 L 372.3,164.6" style="fill:none;stroke:#000000;stroke-width:2.0px;stroke-linecap:butt;stroke-linejoin:miter;stroke-opacity:1;"/>
<path d="M 394.8,177.7 L 396.1,178.4 L 397.3,177.7" style="fill:none;stroke:#000000;stroke-width:2.0px;stroke-linecap:butt;stroke-linejoin:miter;stroke-opacity:1;"/>
<path d="M 421.2,136.5 L 421.2,135.1 L 420.0,134.4" style="fill:none;stroke:#000000;stroke-width:2.0px;stroke-linecap:butt;stroke-linejoin:miter;stroke-opacity:1;"/>
<path d="M 397.4,121.3 L 396.2,120.6 L 394.9,121.3" style="fill:none;stroke:#000000;stroke-width:2.0px;stroke-linecap:butt;stroke-linejoin:miter;stroke-opacity:1;"/>
<path d="M 496.4,151.1 L 496.4,149.7 L 495.1,149.0" style="fill:none;stroke:#000000;stroke-width:2.0px;stroke-linecap:butt;stroke-linejoin:miter;stroke-opacity:1;"/>
<path d="M 472.6,135.9 L 471.4,135.2 L 471.4,133.7" style="fill:none;stroke:#000000;stroke-width:2.0px;stroke-linecap:butt;stroke-linejoin:miter;stroke-opacity:1;"/>
<path d="M 471.4,107.7 L 471.4,106.2 L 470.2,105.5" style="fill:none;stroke:#000000;stroke-width:2.0px;stroke-linecap:butt;stroke-linejoin:miter;stroke-opacity:1;"/>
<path d="M 447.6,92.4 L 446.4,91.7 L 446.4,91.2" style="fill:none;stroke:#000000;stroke-width:2.0px;stroke-linecap:butt;stroke-linejoin:miter;stroke-opacity:1;"/>
<path d="M 520.1,192.4 L 521.4,193.2 L 521.4,194.6" style="fill:none;stroke:#000000;stroke-width:2.0px;stroke-linecap:butt;stroke-linejoin:miter;stroke-opacity:1;"/>
<path d="M 521.3,220.7 L 521.3,222.1 L 521.8,222.4" style="fill:none;stroke:#000000;stroke-width:2.0px;stroke-linecap:butt;stroke-linejoin:miter;stroke-opacity:1;"/>
<path class="atom-7" d="M 442.7 182.8 Q 442.9 182.8, 443.4 183.1 Q 444.0 183.3, 444.6 183.5 Q 445.3 183.6, 445.9 183.6 Q 447.1 183.6, 447.8 183.0 Q 448.4 182.5, 448.4 181.5 Q 448.4 180.8, 448.1 180.4 Q 447.8 180.0, 447.2 179.7 Q 446.7 179.5, 445.8 179.3 Q 444.7 178.9, 444.1 178.6 Q 443.4 178.3, 443.0 177.6 Q 442.5 177.0, 442.5 175.9 Q 442.5 174.3, 443.6 173.4 Q 444.6 172.4, 446.7 172.4 Q 448.1 172.4, 449.7 173.1 L 449.3 174.4 Q 447.9 173.8, 446.8 173.8 Q 445.6 173.8, 444.9 174.3 Q 444.2 174.8, 444.3 175.7 Q 444.3 176.3, 444.6 176.7 Q 444.9 177.1, 445.4 177.3 Q 445.9 177.6, 446.8 177.8 Q 447.9 178.2, 448.5 178.5 Q 449.2 178.9, 449.7 179.6 Q 450.1 180.3, 450.1 181.5 Q 450.1 183.2, 449.0 184.1 Q 447.9 185.0, 446.0 185.0 Q 444.9 185.0, 444.1 184.8 Q 443.2 184.5, 442.3 184.1 L 442.7 182.8 " fill="#CCCC00"/>
<path class="atom-8" d="M 426.0 203.6 Q 426.0 200.7, 427.5 199.0 Q 429.0 197.4, 431.7 197.4 Q 434.4 197.4, 435.9 199.0 Q 437.3 200.7, 437.3 203.6 Q 437.3 206.6, 435.9 208.3 Q 434.4 210.0, 431.7 210.0 Q 429.0 210.0, 427.5 208.3 Q 426.0 206.6, 426.0 203.6 M 431.7 208.6 Q 433.6 208.6, 434.6 207.3 Q 435.6 206.1, 435.6 203.6 Q 435.6 201.2, 434.6 200.0 Q 433.6 198.8, 431.7 198.8 Q 429.8 198.8, 428.8 200.0 Q 427.8 201.2, 427.8 203.6 Q 427.8 206.1, 428.8 207.3 Q 429.8 208.6, 431.7 208.6 " fill="#FF0000"/>
<path class="atom-9" d="M 455.1 153.5 Q 455.1 150.6, 456.5 148.9 Q 458.0 147.3, 460.7 147.3 Q 463.5 147.3, 464.9 148.9 Q 466.4 150.6, 466.4 153.5 Q 466.4 156.5, 464.9 158.2 Q 463.4 159.9, 460.7 159.9 Q 458.0 159.9, 456.5 158.2 Q 455.1 156.5, 455.1 153.5 M 460.7 158.5 Q 462.6 158.5, 463.6 157.3 Q 464.6 156.0, 464.6 153.5 Q 464.6 151.1, 463.6 149.9 Q 462.6 148.7, 460.7 148.7 Q 458.8 148.7, 457.8 149.9 Q 456.8 151.1, 456.8 153.5 Q 456.8 156.0, 457.8 157.3 Q 458.8 158.5, 460.7 158.5 " fill="#FF0000"/>
<path class="atom-10" d="M 468.5 186.9 L 472.6 193.4 Q 473.0 194.1, 473.6 195.2 Q 474.2 196.4, 474.3 196.5 L 474.3 186.9 L 475.9 186.9 L 475.9 199.2 L 474.2 199.2 L 469.9 192.1 Q 469.4 191.3, 468.9 190.3 Q 468.3 189.3, 468.2 189.0 L 468.2 199.2 L 466.6 199.2 L 466.6 186.9 L 468.5 186.9 " fill="#0000FF"/>
<path class="atom-10" d="M 466.4 200.4 L 468.1 200.4 L 468.1 205.7 L 474.4 205.7 L 474.4 200.4 L 476.1 200.4 L 476.1 212.7 L 474.4 212.7 L 474.4 207.1 L 468.1 207.1 L 468.1 212.7 L 466.4 212.7 L 466.4 200.4 " fill="#0000FF"/>
<path class="atom-16" d="M 443.7 56.6 L 447.7 63.1 Q 448.1 63.8, 448.8 64.9 Q 449.4 66.1, 449.5 66.2 L 449.5 56.6 L 451.1 56.6 L 451.1 68.9 L 449.4 68.9 L 445.1 61.8 Q 444.6 61.0, 444.1 60.0 Q 443.5 59.1, 443.4 58.8 L 443.4 68.9 L 441.8 68.9 L 441.8 56.6 L 443.7 56.6 " fill="#0000FF"/>
<path class="atom-16" d="M 453.4 56.6 L 455.1 56.6 L 455.1 61.9 L 461.4 61.9 L 461.4 56.6 L 463.1 56.6 L 463.1 68.9 L 461.4 68.9 L 461.4 63.2 L 455.1 63.2 L 455.1 68.9 L 453.4 68.9 L 453.4 56.6 " fill="#0000FF"/>
<path class="atom-16" d="M 465.5 68.5 Q 465.8 67.7, 466.5 67.3 Q 467.2 66.9, 468.2 66.9 Q 469.4 66.9, 470.1 67.5 Q 470.8 68.2, 470.8 69.4 Q 470.8 70.6, 469.9 71.7 Q 469.0 72.8, 467.2 74.2 L 470.9 74.2 L 470.9 75.1 L 465.5 75.1 L 465.5 74.3 Q 467.0 73.2, 467.9 72.4 Q 468.8 71.6, 469.2 70.9 Q 469.6 70.2, 469.6 69.4 Q 469.6 68.7, 469.2 68.2 Q 468.9 67.8, 468.2 67.8 Q 467.5 67.8, 467.1 68.0 Q 466.7 68.3, 466.3 68.9 L 465.5 68.5 " fill="#0000FF"/>
<path class="atom-18" d="M 540.8 178.8 Q 540.8 175.8, 542.3 174.2 Q 543.7 172.5, 546.5 172.5 Q 549.2 172.5, 550.6 174.2 Q 552.1 175.8, 552.1 178.8 Q 552.1 181.8, 550.6 183.5 Q 549.2 185.1, 546.5 185.1 Q 543.8 185.1, 542.3 183.5 Q 540.8 181.8, 540.8 178.8 M 546.5 183.8 Q 548.3 183.8, 549.3 182.5 Q 550.4 181.2, 550.4 178.8 Q 550.4 176.4, 549.3 175.1 Q 548.3 173.9, 546.5 173.9 Q 544.6 173.9, 543.6 175.1 Q 542.6 176.3, 542.6 178.8 Q 542.6 181.3, 543.6 182.5 Q 544.6 183.8, 546.5 183.8 " fill="#FF0000"/>
<path class="atom-20" d="M 541.6 237.0 Q 541.6 234.0, 543.0 232.4 Q 544.5 230.8, 547.2 230.8 Q 549.7 230.8, 551.1 232.6 L 549.9 233.5 Q 548.9 232.2, 547.2 232.2 Q 545.3 232.2, 544.3 233.5 Q 543.4 234.7, 543.4 237.0 Q 543.4 239.5, 544.4 240.7 Q 545.4 242.0, 547.4 242.0 Q 548.7 242.0, 550.3 241.2 L 550.8 242.5 Q 550.2 242.9, 549.2 243.1 Q 548.2 243.4, 547.1 243.4 Q 544.5 243.4, 543.0 241.7 Q 541.6 240.1, 541.6 237.0 " fill="#00CC00"/>
<path class="atom-20" d="M 552.3 230.0 L 553.9 230.0 L 553.9 243.2 L 552.3 243.2 L 552.3 230.0 " fill="#00CC00"/>
<path class="bond-0 atom-0 atom-1" d="M 885.0,160.7 L 870.6,135.6" style="fill:none;fill-rule:evenodd;stroke:#000000;stroke-width:2.0px;stroke-linecap:butt;stroke-linejoin:miter;stroke-opacity:1"/>
<path class="bond-1 atom-1 atom-2" d="M 870.6,135.6 L 842.2,141.6" style="fill:none;fill-rule:evenodd;stroke:#000000;stroke-width:2.0px;stroke-linecap:butt;stroke-linejoin:miter;stroke-opacity:1"/>
<path class="bond-2 atom-2 atom-3" d="M 842.2,141.6 L 839.2,170.4" style="fill:none;fill-rule:evenodd;stroke:#000000;stroke-width:2.0px;stroke-linecap:butt;stroke-linejoin:miter;stroke-opacity:1"/>
<path class="bond-3 atom-3 atom-4" d="M 839.2,170.4 L 865.6,182.2" style="fill:none;fill-rule:evenodd;stroke:#000000;stroke-width:2.0px;stroke-linecap:butt;stroke-linejoin:miter;stroke-opacity:1"/>
<path class="bond-4 atom-3 atom-5" d="M 839.2,170.4 L 814.1,184.8" style="fill:none;fill-rule:evenodd;stroke:#000000;stroke-width:2.0px;stroke-linecap:butt;stroke-linejoin:miter;stroke-opacity:1"/>
<path class="bond-5 atom-5 atom-6" d="M 814.1,184.8 L 789.1,170.3" style="fill:none;fill-rule:evenodd;stroke:#000000;stroke-width:2.0px;stroke-linecap:butt;stroke-linejoin:miter;stroke-opacity:1"/>
<path class="bond-6 atom-6 atom-7" d="M 789.1,170.3 L 779.3,175.9" style="fill:none;fill-rule:evenodd;stroke:#000000;stroke-width:2.0px;stroke-linecap:butt;stroke-linejoin:miter;stroke-opacity:1"/>
<path class="bond-6 atom-6 atom-7" d="M 779.3,175.9 L 769.6,181.5" style="fill:none;fill-rule:evenodd;stroke:#0000FF;stroke-width:2.0px;stroke-linecap:butt;stroke-linejoin:miter;stroke-opacity:1"/>
<path class="bond-7 atom-7 atom-8" d="M 758.4,181.5 L 748.7,175.9" style="fill:none;fill-rule:evenodd;stroke:#0000FF;stroke-width:2.0px;stroke-linecap:butt;stroke-linejoin:miter;stroke-opacity:1"/>
<path class="bond-7 atom-7 atom-8" d="M 748.7,175.9 L 738.9,170.3" style="fill:none;fill-rule:evenodd;stroke:#000000;stroke-width:2.0px;stroke-linecap:butt;stroke-linejoin:miter;stroke-opacity:1"/>
<path class="bond-8 atom-8 atom-9" d="M 738.9,170.3 L 713.9,184.7" style="fill:none;fill-rule:evenodd;stroke:#000000;stroke-width:2.0px;stroke-linecap:butt;stroke-linejoin:miter;stroke-opacity:1"/>
<path class="bond-8 atom-8 atom-9" d="M 734.6,167.8 L 713.9,179.7" style="fill:none;fill-rule:evenodd;stroke:#000000;stroke-width:2.0px;stroke-linecap:butt;stroke-linejoin:miter;stroke-opacity:1"/>
<path class="bond-9 atom-9 atom-10" d="M 713.9,184.7 L 688.8,170.2" style="fill:none;fill-rule:evenodd;stroke:#000000;stroke-width:2.0px;stroke-linecap:butt;stroke-linejoin:miter;stroke-opacity:1"/>
<path class="bond-10 atom-10 atom-11" d="M 688.8,170.2 L 688.8,141.3" style="fill:none;fill-rule:evenodd;stroke:#000000;stroke-width:2.0px;stroke-linecap:butt;stroke-linejoin:miter;stroke-opacity:1"/>
<path class="bond-10 atom-10 atom-11" d="M 693.2,167.7 L 693.2,143.8" style="fill:none;fill-rule:evenodd;stroke:#000000;stroke-width:2.0px;stroke-linecap:butt;stroke-linejoin:miter;stroke-opacity:1"/>
<path class="bond-11 atom-11 atom-12" d="M 688.8,141.3 L 713.9,126.9" style="fill:none;fill-rule:evenodd;stroke:#000000;stroke-width:2.0px;stroke-linecap:butt;stroke-linejoin:miter;stroke-opacity:1"/>
<path class="bond-12 atom-12 atom-13" d="M 713.9,126.9 L 739.0,141.3" style="fill:none;fill-rule:evenodd;stroke:#000000;stroke-width:2.0px;stroke-linecap:butt;stroke-linejoin:miter;stroke-opacity:1"/>
<path class="bond-12 atom-12 atom-13" d="M 713.9,131.9 L 734.6,143.8" style="fill:none;fill-rule:evenodd;stroke:#000000;stroke-width:2.0px;stroke-linecap:butt;stroke-linejoin:miter;stroke-opacity:1"/>
<path class="bond-13 atom-13 atom-14" d="M 739.0,141.3 L 749.0,135.5" style="fill:none;fill-rule:evenodd;stroke:#000000;stroke-width:2.0px;stroke-linecap:butt;stroke-linejoin:miter;stroke-opacity:1"/>
<path class="bond-13 atom-13 atom-14" d="M 749.0,135.5 L 759.1,129.7" style="fill:none;fill-rule:evenodd;stroke:#CCCC00;stroke-width:2.0px;stroke-linecap:butt;stroke-linejoin:miter;stroke-opacity:1"/>
<path class="bond-14 atom-14 atom-15" d="M 770.6,122.5 L 774.4,118.0" style="fill:none;fill-rule:evenodd;stroke:#CCCC00;stroke-width:2.0px;stroke-linecap:butt;stroke-linejoin:miter;stroke-opacity:1"/>
<path class="bond-14 atom-14 atom-15" d="M 774.4,118.0 L 778.1,113.5" style="fill:none;fill-rule:evenodd;stroke:#FF0000;stroke-width:2.0px;stroke-linecap:butt;stroke-linejoin:miter;stroke-opacity:1"/>
<path class="bond-14 atom-14 atom-15" d="M 767.3,119.7 L 771.0,115.2" style="fill:none;fill-rule:evenodd;stroke:#CCCC00;stroke-width:2.0px;stroke-linecap:butt;stroke-linejoin:miter;stroke-opacity:1"/>
<path class="bond-14 atom-14 atom-15" d="M 771.0,115.2 L 774.8,110.7" style="fill:none;fill-rule:evenodd;stroke:#FF0000;stroke-width:2.0px;stroke-linecap:butt;stroke-linejoin:miter;stroke-opacity:1"/>
<path class="bond-15 atom-14 atom-16" d="M 760.8,119.7 L 757.0,115.2" style="fill:none;fill-rule:evenodd;stroke:#CCCC00;stroke-width:2.0px;stroke-linecap:butt;stroke-linejoin:miter;stroke-opacity:1"/>
<path class="bond-15 atom-14 atom-16" d="M 757.0,115.2 L 753.3,110.7" style="fill:none;fill-rule:evenodd;stroke:#FF0000;stroke-width:2.0px;stroke-linecap:butt;stroke-linejoin:miter;stroke-opacity:1"/>
<path class="bond-15 atom-14 atom-16" d="M 757.5,122.4 L 753.7,118.0" style="fill:none;fill-rule:evenodd;stroke:#CCCC00;stroke-width:2.0px;stroke-linecap:butt;stroke-linejoin:miter;stroke-opacity:1"/>
<path class="bond-15 atom-14 atom-16" d="M 753.7,118.0 L 750.0,113.5" style="fill:none;fill-rule:evenodd;stroke:#FF0000;stroke-width:2.0px;stroke-linecap:butt;stroke-linejoin:miter;stroke-opacity:1"/>
<path class="bond-16 atom-14 atom-17" d="M 768.9,129.7 L 776.2,133.9" style="fill:none;fill-rule:evenodd;stroke:#CCCC00;stroke-width:2.0px;stroke-linecap:butt;stroke-linejoin:miter;stroke-opacity:1"/>
<path class="bond-16 atom-14 atom-17" d="M 776.2,133.9 L 783.5,138.1" style="fill:none;fill-rule:evenodd;stroke:#0000FF;stroke-width:2.0px;stroke-linecap:butt;stroke-linejoin:miter;stroke-opacity:1"/>
<path class="bond-17 atom-11 atom-18" d="M 688.8,141.3 L 678.8,135.5" style="fill:none;fill-rule:evenodd;stroke:#000000;stroke-width:2.0px;stroke-linecap:butt;stroke-linejoin:miter;stroke-opacity:1"/>
<path class="bond-17 atom-11 atom-18" d="M 678.8,135.5 L 668.7,129.6" style="fill:none;fill-rule:evenodd;stroke:#CCCC00;stroke-width:2.0px;stroke-linecap:butt;stroke-linejoin:miter;stroke-opacity:1"/>
<path class="bond-18 atom-18 atom-19" d="M 669.8,120.8 L 672.8,115.5" style="fill:none;fill-rule:evenodd;stroke:#CCCC00;stroke-width:2.0px;stroke-linecap:butt;stroke-linejoin:miter;stroke-opacity:1"/>
<path class="bond-18 atom-18 atom-19" d="M 672.8,115.5 L 675.9,110.2" style="fill:none;fill-rule:evenodd;stroke:#FF0000;stroke-width:2.0px;stroke-linecap:butt;stroke-linejoin:miter;stroke-opacity:1"/>
<path class="bond-18 atom-18 atom-19" d="M 666.0,118.6 L 669.1,113.3" style="fill:none;fill-rule:evenodd;stroke:#CCCC00;stroke-width:2.0px;stroke-linecap:butt;stroke-linejoin:miter;stroke-opacity:1"/>
<path class="bond-18 atom-18 atom-19" d="M 669.1,113.3 L 672.1,108.0" style="fill:none;fill-rule:evenodd;stroke:#FF0000;stroke-width:2.0px;stroke-linecap:butt;stroke-linejoin:miter;stroke-opacity:1"/>
<path class="bond-19 atom-18 atom-20" d="M 657.6,133.1 L 654.6,138.4" style="fill:none;fill-rule:evenodd;stroke:#CCCC00;stroke-width:2.0px;stroke-linecap:butt;stroke-linejoin:miter;stroke-opacity:1"/>
<path class="bond-19 atom-18 atom-20" d="M 654.6,138.4 L 651.6,143.6" style="fill:none;fill-rule:evenodd;stroke:#FF0000;stroke-width:2.0px;stroke-linecap:butt;stroke-linejoin:miter;stroke-opacity:1"/>
<path class="bond-19 atom-18 atom-20" d="M 661.4,135.3 L 658.3,140.6" style="fill:none;fill-rule:evenodd;stroke:#CCCC00;stroke-width:2.0px;stroke-linecap:butt;stroke-linejoin:miter;stroke-opacity:1"/>
<path class="bond-19 atom-18 atom-20" d="M 658.3,140.6 L 655.3,145.8" style="fill:none;fill-rule:evenodd;stroke:#FF0000;stroke-width:2.0px;stroke-linecap:butt;stroke-linejoin:miter;stroke-opacity:1"/>
<path class="bond-20 atom-18 atom-21" d="M 658.9,124.0 L 651.6,119.8" style="fill:none;fill-rule:evenodd;stroke:#CCCC00;stroke-width:2.0px;stroke-linecap:butt;stroke-linejoin:miter;stroke-opacity:1"/>
<path class="bond-20 atom-18 atom-21" d="M 651.6,119.8 L 644.3,115.6" style="fill:none;fill-rule:evenodd;stroke:#0000FF;stroke-width:2.0px;stroke-linecap:butt;stroke-linejoin:miter;stroke-opacity:1"/>
<path class="bond-21 atom-10 atom-22" d="M 688.8,170.2 L 677.1,177.0" style="fill:none;fill-rule:evenodd;stroke:#000000;stroke-width:2.0px;stroke-linecap:butt;stroke-linejoin:miter;stroke-opacity:1"/>
<path class="bond-21 atom-10 atom-22" d="M 677.1,177.0 L 665.5,183.7" style="fill:none;fill-rule:evenodd;stroke:#00CC00;stroke-width:2.0px;stroke-linecap:butt;stroke-linejoin:miter;stroke-opacity:1"/>
<path class="bond-22 atom-4 atom-0" d="M 865.6,182.2 L 885.0,160.7" style="fill:none;fill-rule:evenodd;stroke:#000000;stroke-width:2.0px;stroke-linecap:butt;stroke-linejoin:miter;stroke-opacity:1"/>
<path class="bond-23 atom-17 atom-6" d="M 789.1,148.5 L 789.1,159.4" style="fill:none;fill-rule:evenodd;stroke:#0000FF;stroke-width:2.0px;stroke-linecap:butt;stroke-linejoin:miter;stroke-opacity:1"/>
<path class="bond-23 atom-17 atom-6" d="M 789.1,159.4 L 789.1,170.3" style="fill:none;fill-rule:evenodd;stroke:#000000;stroke-width:2.0px;stroke-linecap:butt;stroke-linejoin:miter;stroke-opacity:1"/>
<path class="bond-24 atom-13 atom-8" d="M 739.0,141.3 L 738.9,170.3" style="fill:none;fill-rule:evenodd;stroke:#000000;stroke-width:2.0px;stroke-linecap:butt;stroke-linejoin:miter;stroke-opacity:1"/>
<path d="M 884.3,159.4 L 885.0,160.7 L 884.0,161.7" style="fill:none;stroke:#000000;stroke-width:2.0px;stroke-linecap:butt;stroke-linejoin:miter;stroke-opacity:1;"/>
<path d="M 871.3,136.8 L 870.6,135.6 L 869.1,135.9" style="fill:none;stroke:#000000;stroke-width:2.0px;stroke-linecap:butt;stroke-linejoin:miter;stroke-opacity:1;"/>
<path d="M 843.7,141.3 L 842.2,141.6 L 842.1,143.0" style="fill:none;stroke:#000000;stroke-width:2.0px;stroke-linecap:butt;stroke-linejoin:miter;stroke-opacity:1;"/>
<path d="M 864.3,181.6 L 865.6,182.2 L 866.6,181.1" style="fill:none;stroke:#000000;stroke-width:2.0px;stroke-linecap:butt;stroke-linejoin:miter;stroke-opacity:1;"/>
<path d="M 815.4,184.1 L 814.1,184.8 L 812.9,184.1" style="fill:none;stroke:#000000;stroke-width:2.0px;stroke-linecap:butt;stroke-linejoin:miter;stroke-opacity:1;"/>
<path d="M 715.1,184.0 L 713.9,184.7 L 712.6,184.0" style="fill:none;stroke:#000000;stroke-width:2.0px;stroke-linecap:butt;stroke-linejoin:miter;stroke-opacity:1;"/>
<path d="M 712.7,127.6 L 713.9,126.9 L 715.2,127.6" style="fill:none;stroke:#000000;stroke-width:2.0px;stroke-linecap:butt;stroke-linejoin:miter;stroke-opacity:1;"/>
<path class="atom-7" d="M 761.3 178.6 L 765.3 185.1 Q 765.7 185.8, 766.3 187.0 Q 767.0 188.1, 767.0 188.2 L 767.0 178.6 L 768.7 178.6 L 768.7 190.9 L 767.0 190.9 L 762.6 183.8 Q 762.1 183.0, 761.6 182.0 Q 761.1 181.1, 760.9 180.8 L 760.9 190.9 L 759.3 190.9 L 759.3 178.6 L 761.3 178.6 " fill="#0000FF"/>
<path class="atom-7" d="M 759.2 192.2 L 760.8 192.2 L 760.8 197.4 L 767.1 197.4 L 767.1 192.2 L 768.8 192.2 L 768.8 204.5 L 767.1 204.5 L 767.1 198.8 L 760.8 198.8 L 760.8 204.5 L 759.2 204.5 L 759.2 192.2 " fill="#0000FF"/>
<path class="atom-14" d="M 760.6 131.1 Q 760.7 131.2, 761.3 131.4 Q 761.8 131.7, 762.5 131.8 Q 763.1 132.0, 763.7 132.0 Q 764.9 132.0, 765.6 131.4 Q 766.3 130.8, 766.3 129.8 Q 766.3 129.2, 765.9 128.7 Q 765.6 128.3, 765.1 128.1 Q 764.5 127.9, 763.7 127.6 Q 762.6 127.3, 761.9 127.0 Q 761.3 126.7, 760.8 126.0 Q 760.4 125.3, 760.4 124.2 Q 760.4 122.7, 761.4 121.7 Q 762.5 120.8, 764.5 120.8 Q 766.0 120.8, 767.6 121.4 L 767.2 122.8 Q 765.7 122.2, 764.6 122.2 Q 763.4 122.2, 762.7 122.7 Q 762.1 123.2, 762.1 124.0 Q 762.1 124.7, 762.4 125.1 Q 762.8 125.5, 763.3 125.7 Q 763.8 125.9, 764.6 126.2 Q 765.7 126.5, 766.4 126.9 Q 767.0 127.2, 767.5 127.9 Q 768.0 128.6, 768.0 129.8 Q 768.0 131.5, 766.8 132.5 Q 765.7 133.4, 763.8 133.4 Q 762.7 133.4, 761.9 133.1 Q 761.1 132.9, 760.1 132.5 L 760.6 131.1 " fill="#CCCC00"/>
<path class="atom-15" d="M 777.0 104.8 Q 777.0 101.8, 778.5 100.2 Q 779.9 98.5, 782.7 98.5 Q 785.4 98.5, 786.8 100.2 Q 788.3 101.8, 788.3 104.8 Q 788.3 107.8, 786.8 109.5 Q 785.3 111.1, 782.7 111.1 Q 779.9 111.1, 778.5 109.5 Q 777.0 107.8, 777.0 104.8 M 782.7 109.8 Q 784.5 109.8, 785.5 108.5 Q 786.6 107.2, 786.6 104.8 Q 786.6 102.4, 785.5 101.1 Q 784.5 99.9, 782.7 99.9 Q 780.8 99.9, 779.8 101.1 Q 778.7 102.3, 778.7 104.8 Q 778.7 107.3, 779.8 108.5 Q 780.8 109.8, 782.7 109.8 " fill="#FF0000"/>
<path class="atom-16" d="M 739.8 104.7 Q 739.8 101.8, 741.3 100.1 Q 742.7 98.5, 745.4 98.5 Q 748.2 98.5, 749.6 100.1 Q 751.1 101.8, 751.1 104.7 Q 751.1 107.7, 749.6 109.4 Q 748.1 111.1, 745.4 111.1 Q 742.7 111.1, 741.3 109.4 Q 739.8 107.7, 739.8 104.7 M 745.4 109.7 Q 747.3 109.7, 748.3 108.5 Q 749.4 107.2, 749.4 104.7 Q 749.4 102.3, 748.3 101.1 Q 747.3 99.9, 745.4 99.9 Q 743.6 99.9, 742.5 101.1 Q 741.5 102.3, 741.5 104.7 Q 741.5 107.2, 742.5 108.5 Q 743.6 109.7, 745.4 109.7 " fill="#FF0000"/>
<path class="atom-17" d="M 786.4 135.2 L 790.4 141.8 Q 790.8 142.4, 791.4 143.6 Q 792.1 144.7, 792.1 144.8 L 792.1 135.2 L 793.7 135.2 L 793.7 147.5 L 792.1 147.5 L 787.7 140.4 Q 787.2 139.6, 786.7 138.6 Q 786.2 137.7, 786.0 137.4 L 786.0 147.5 L 784.4 147.5 L 784.4 135.2 L 786.4 135.2 " fill="#0000FF"/>
<path class="atom-17" d="M 796.1 135.2 L 797.8 135.2 L 797.8 140.5 L 804.1 140.5 L 804.1 135.2 L 805.8 135.2 L 805.8 147.5 L 804.1 147.5 L 804.1 141.9 L 797.8 141.9 L 797.8 147.5 L 796.1 147.5 L 796.1 135.2 " fill="#0000FF"/>
<path class="atom-18" d="M 660.3 131.0 Q 660.4 131.1, 661.0 131.3 Q 661.6 131.6, 662.2 131.7 Q 662.9 131.9, 663.5 131.9 Q 664.6 131.9, 665.3 131.3 Q 666.0 130.7, 666.0 129.8 Q 666.0 129.1, 665.7 128.7 Q 665.3 128.2, 664.8 128.0 Q 664.3 127.8, 663.4 127.5 Q 662.3 127.2, 661.7 126.9 Q 661.0 126.6, 660.6 125.9 Q 660.1 125.3, 660.1 124.1 Q 660.1 122.6, 661.1 121.6 Q 662.2 120.7, 664.3 120.7 Q 665.7 120.7, 667.3 121.4 L 666.9 122.7 Q 665.4 122.1, 664.3 122.1 Q 663.1 122.1, 662.5 122.6 Q 661.8 123.1, 661.8 123.9 Q 661.8 124.6, 662.2 125.0 Q 662.5 125.4, 663.0 125.6 Q 663.5 125.8, 664.3 126.1 Q 665.4 126.5, 666.1 126.8 Q 666.8 127.1, 667.2 127.9 Q 667.7 128.6, 667.7 129.8 Q 667.7 131.5, 666.6 132.4 Q 665.4 133.3, 663.6 133.3 Q 662.5 133.3, 661.6 133.0 Q 660.8 132.8, 659.8 132.4 L 660.3 131.0 " fill="#CCCC00"/>
<path class="atom-19" d="M 672.6 101.8 Q 672.6 98.8, 674.1 97.2 Q 675.5 95.5, 678.3 95.5 Q 681.0 95.5, 682.5 97.2 Q 683.9 98.8, 683.9 101.8 Q 683.9 104.8, 682.4 106.5 Q 681.0 108.2, 678.3 108.2 Q 675.6 108.2, 674.1 106.5 Q 672.6 104.8, 672.6 101.8 M 678.3 106.8 Q 680.1 106.8, 681.2 105.5 Q 682.2 104.3, 682.2 101.8 Q 682.2 99.4, 681.2 98.2 Q 680.1 96.9, 678.3 96.9 Q 676.4 96.9, 675.4 98.2 Q 674.4 99.4, 674.4 101.8 Q 674.4 104.3, 675.4 105.5 Q 676.4 106.8, 678.3 106.8 " fill="#FF0000"/>
<path class="atom-20" d="M 643.6 151.9 Q 643.6 149.0, 645.1 147.3 Q 646.6 145.7, 649.3 145.7 Q 652.0 145.7, 653.5 147.3 Q 654.9 149.0, 654.9 151.9 Q 654.9 154.9, 653.5 156.6 Q 652.0 158.3, 649.3 158.3 Q 646.6 158.3, 645.1 156.6 Q 643.6 154.9, 643.6 151.9 M 649.3 156.9 Q 651.2 156.9, 652.2 155.6 Q 653.2 154.4, 653.2 151.9 Q 653.2 149.5, 652.2 148.3 Q 651.2 147.0, 649.3 147.0 Q 647.4 147.0, 646.4 148.3 Q 645.4 149.5, 645.4 151.9 Q 645.4 154.4, 646.4 155.6 Q 647.4 156.9, 649.3 156.9 " fill="#FF0000"/>
<path class="atom-21" d="M 615.0 106.2 L 616.7 106.2 L 616.7 111.4 L 623.0 111.4 L 623.0 106.2 L 624.6 106.2 L 624.6 118.5 L 623.0 118.5 L 623.0 112.8 L 616.7 112.8 L 616.7 118.5 L 615.0 118.5 L 615.0 106.2 " fill="#0000FF"/>
<path class="atom-21" d="M 627.0 118.0 Q 627.3 117.3, 628.0 116.8 Q 628.7 116.4, 629.7 116.4 Q 631.0 116.4, 631.6 117.1 Q 632.3 117.7, 632.3 118.9 Q 632.3 120.1, 631.4 121.2 Q 630.6 122.4, 628.7 123.7 L 632.5 123.7 L 632.5 124.6 L 627.0 124.6 L 627.0 123.8 Q 628.5 122.8, 629.4 122.0 Q 630.3 121.2, 630.8 120.4 Q 631.2 119.7, 631.2 119.0 Q 631.2 118.2, 630.8 117.8 Q 630.4 117.3, 629.7 117.3 Q 629.1 117.3, 628.6 117.6 Q 628.2 117.9, 627.9 118.4 L 627.0 118.0 " fill="#0000FF"/>
<path class="atom-21" d="M 636.0 106.2 L 640.0 112.7 Q 640.4 113.3, 641.1 114.5 Q 641.7 115.7, 641.8 115.7 L 641.8 106.2 L 643.4 106.2 L 643.4 118.5 L 641.7 118.5 L 637.4 111.3 Q 636.9 110.5, 636.3 109.6 Q 635.8 108.6, 635.7 108.3 L 635.7 118.5 L 634.1 118.5 L 634.1 106.2 L 636.0 106.2 " fill="#0000FF"/>
<path class="atom-22" d="M 652.2 185.1 Q 652.2 182.1, 653.6 180.5 Q 655.1 178.9, 657.8 178.9 Q 660.3 178.9, 661.7 180.6 L 660.5 181.6 Q 659.6 180.3, 657.8 180.3 Q 655.9 180.3, 654.9 181.5 Q 654.0 182.8, 654.0 185.1 Q 654.0 187.6, 655.0 188.8 Q 656.0 190.1, 658.0 190.1 Q 659.3 190.1, 660.9 189.2 L 661.4 190.5 Q 660.8 191.0, 659.8 191.2 Q 658.8 191.4, 657.7 191.4 Q 655.1 191.4, 653.6 189.8 Q 652.2 188.2, 652.2 185.1 " fill="#00CC00"/>
<path class="atom-22" d="M 662.9 178.1 L 664.5 178.1 L 664.5 191.3 L 662.9 191.3 L 662.9 178.1 " fill="#00CC00"/>
<path class="bond-0 atom-0 atom-1" d="M 1126.6,77.0 L 1097.8,74.0" style="fill:none;fill-rule:evenodd;stroke:#000000;stroke-width:2.0px;stroke-linecap:butt;stroke-linejoin:miter;stroke-opacity:1"/>
<path class="bond-1 atom-1 atom-2" d="M 1097.8,74.0 L 1103.8,45.7" style="fill:none;fill-rule:evenodd;stroke:#000000;stroke-width:2.0px;stroke-linecap:butt;stroke-linejoin:miter;stroke-opacity:1"/>
<path class="bond-2 atom-2 atom-3" d="M 1103.8,45.7 L 1078.8,31.2" style="fill:none;fill-rule:evenodd;stroke:#000000;stroke-width:2.0px;stroke-linecap:butt;stroke-linejoin:miter;stroke-opacity:1"/>
<path class="bond-3 atom-3 atom-4" d="M 1078.8,31.2 L 1057.2,50.5" style="fill:none;fill-rule:evenodd;stroke:#000000;stroke-width:2.0px;stroke-linecap:butt;stroke-linejoin:miter;stroke-opacity:1"/>
<path class="bond-4 atom-4 atom-5" d="M 1057.2,50.5 L 1061.5,60.1" style="fill:none;fill-rule:evenodd;stroke:#000000;stroke-width:2.0px;stroke-linecap:butt;stroke-linejoin:miter;stroke-opacity:1"/>
<path class="bond-4 atom-4 atom-5" d="M 1061.5,60.1 L 1065.8,69.8" style="fill:none;fill-rule:evenodd;stroke:#FF0000;stroke-width:2.0px;stroke-linecap:butt;stroke-linejoin:miter;stroke-opacity:1"/>
<path class="bond-5 atom-1 atom-6" d="M 1097.8,74.0 L 1097.7,102.9" style="fill:none;fill-rule:evenodd;stroke:#000000;stroke-width:2.0px;stroke-linecap:butt;stroke-linejoin:miter;stroke-opacity:1"/>
<path class="bond-6 atom-6 atom-7" d="M 1097.7,102.9 L 1088.0,108.5" style="fill:none;fill-rule:evenodd;stroke:#000000;stroke-width:2.0px;stroke-linecap:butt;stroke-linejoin:miter;stroke-opacity:1"/>
<path class="bond-6 atom-6 atom-7" d="M 1088.0,108.5 L 1078.3,114.1" style="fill:none;fill-rule:evenodd;stroke:#0000FF;stroke-width:2.0px;stroke-linecap:butt;stroke-linejoin:miter;stroke-opacity:1"/>
<path class="bond-7 atom-7 atom-8" d="M 1067.0,114.1 L 1057.3,108.5" style="fill:none;fill-rule:evenodd;stroke:#0000FF;stroke-width:2.0px;stroke-linecap:butt;stroke-linejoin:miter;stroke-opacity:1"/>
<path class="bond-7 atom-7 atom-8" d="M 1057.3,108.5 L 1047.6,102.8" style="fill:none;fill-rule:evenodd;stroke:#000000;stroke-width:2.0px;stroke-linecap:butt;stroke-linejoin:miter;stroke-opacity:1"/>
<path class="bond-8 atom-7 atom-9" d="M 1072.6,124.4 L 1072.6,131.8" style="fill:none;fill-rule:evenodd;stroke:#0000FF;stroke-width:2.0px;stroke-linecap:butt;stroke-linejoin:miter;stroke-opacity:1"/>
<path class="bond-8 atom-7 atom-9" d="M 1072.6,131.8 L 1072.6,139.2" style="fill:none;fill-rule:evenodd;stroke:#CCCC00;stroke-width:2.0px;stroke-linecap:butt;stroke-linejoin:miter;stroke-opacity:1"/>
<path class="bond-9 atom-9 atom-10" d="M 1067.7,144.1 L 1059.0,144.1" style="fill:none;fill-rule:evenodd;stroke:#CCCC00;stroke-width:2.0px;stroke-linecap:butt;stroke-linejoin:miter;stroke-opacity:1"/>
<path class="bond-9 atom-9 atom-10" d="M 1059.0,144.1 L 1050.2,144.1" style="fill:none;fill-rule:evenodd;stroke:#FF0000;stroke-width:2.0px;stroke-linecap:butt;stroke-linejoin:miter;stroke-opacity:1"/>
<path class="bond-9 atom-9 atom-10" d="M 1067.7,148.4 L 1058.9,148.4" style="fill:none;fill-rule:evenodd;stroke:#CCCC00;stroke-width:2.0px;stroke-linecap:butt;stroke-linejoin:miter;stroke-opacity:1"/>
<path class="bond-9 atom-9 atom-10" d="M 1058.9,148.4 L 1050.2,148.4" style="fill:none;fill-rule:evenodd;stroke:#FF0000;stroke-width:2.0px;stroke-linecap:butt;stroke-linejoin:miter;stroke-opacity:1"/>
<path class="bond-10 atom-9 atom-11" d="M 1077.5,148.5 L 1086.2,148.5" style="fill:none;fill-rule:evenodd;stroke:#CCCC00;stroke-width:2.0px;stroke-linecap:butt;stroke-linejoin:miter;stroke-opacity:1"/>
<path class="bond-10 atom-9 atom-11" d="M 1086.2,148.5 L 1094.9,148.5" style="fill:none;fill-rule:evenodd;stroke:#FF0000;stroke-width:2.0px;stroke-linecap:butt;stroke-linejoin:miter;stroke-opacity:1"/>
<path class="bond-10 atom-9 atom-11" d="M 1077.5,144.1 L 1086.2,144.1" style="fill:none;fill-rule:evenodd;stroke:#CCCC00;stroke-width:2.0px;stroke-linecap:butt;stroke-linejoin:miter;stroke-opacity:1"/>
<path class="bond-10 atom-9 atom-11" d="M 1086.2,144.1 L 1094.9,144.2" style="fill:none;fill-rule:evenodd;stroke:#FF0000;stroke-width:2.0px;stroke-linecap:butt;stroke-linejoin:miter;stroke-opacity:1"/>
<path class="bond-11 atom-9 atom-12" d="M 1072.6,153.7 L 1072.5,164.5" style="fill:none;fill-rule:evenodd;stroke:#CCCC00;stroke-width:2.0px;stroke-linecap:butt;stroke-linejoin:miter;stroke-opacity:1"/>
<path class="bond-11 atom-9 atom-12" d="M 1072.5,164.5 L 1072.5,175.2" style="fill:none;fill-rule:evenodd;stroke:#000000;stroke-width:2.0px;stroke-linecap:butt;stroke-linejoin:miter;stroke-opacity:1"/>
<path class="bond-12 atom-12 atom-13" d="M 1072.5,175.2 L 1047.4,189.7" style="fill:none;fill-rule:evenodd;stroke:#000000;stroke-width:2.0px;stroke-linecap:butt;stroke-linejoin:miter;stroke-opacity:1"/>
<path class="bond-12 atom-12 atom-13" d="M 1072.5,180.2 L 1051.7,192.2" style="fill:none;fill-rule:evenodd;stroke:#000000;stroke-width:2.0px;stroke-linecap:butt;stroke-linejoin:miter;stroke-opacity:1"/>
<path class="bond-13 atom-13 atom-14" d="M 1047.4,189.7 L 1047.4,218.6" style="fill:none;fill-rule:evenodd;stroke:#000000;stroke-width:2.0px;stroke-linecap:butt;stroke-linejoin:miter;stroke-opacity:1"/>
<path class="bond-14 atom-14 atom-15" d="M 1047.4,218.6 L 1072.4,233.1" style="fill:none;fill-rule:evenodd;stroke:#000000;stroke-width:2.0px;stroke-linecap:butt;stroke-linejoin:miter;stroke-opacity:1"/>
<path class="bond-14 atom-14 atom-15" d="M 1051.7,216.1 L 1072.4,228.1" style="fill:none;fill-rule:evenodd;stroke:#000000;stroke-width:2.0px;stroke-linecap:butt;stroke-linejoin:miter;stroke-opacity:1"/>
<path class="bond-15 atom-15 atom-16" d="M 1072.4,233.1 L 1097.5,218.7" style="fill:none;fill-rule:evenodd;stroke:#000000;stroke-width:2.0px;stroke-linecap:butt;stroke-linejoin:miter;stroke-opacity:1"/>
<path class="bond-16 atom-16 atom-17" d="M 1097.5,218.7 L 1097.5,189.8" style="fill:none;fill-rule:evenodd;stroke:#000000;stroke-width:2.0px;stroke-linecap:butt;stroke-linejoin:miter;stroke-opacity:1"/>
<path class="bond-16 atom-16 atom-17" d="M 1093.2,216.2 L 1093.2,192.3" style="fill:none;fill-rule:evenodd;stroke:#000000;stroke-width:2.0px;stroke-linecap:butt;stroke-linejoin:miter;stroke-opacity:1"/>
<path class="bond-17 atom-15 atom-18" d="M 1072.4,233.1 L 1072.3,244.2" style="fill:none;fill-rule:evenodd;stroke:#000000;stroke-width:2.0px;stroke-linecap:butt;stroke-linejoin:miter;stroke-opacity:1"/>
<path class="bond-17 atom-15 atom-18" d="M 1072.3,244.2 L 1072.3,255.3" style="fill:none;fill-rule:evenodd;stroke:#00CC00;stroke-width:2.0px;stroke-linecap:butt;stroke-linejoin:miter;stroke-opacity:1"/>
<path class="bond-18 atom-14 atom-19" d="M 1047.4,218.6 L 1037.3,224.4" style="fill:none;fill-rule:evenodd;stroke:#000000;stroke-width:2.0px;stroke-linecap:butt;stroke-linejoin:miter;stroke-opacity:1"/>
<path class="bond-18 atom-14 atom-19" d="M 1037.3,224.4 L 1027.2,230.2" style="fill:none;fill-rule:evenodd;stroke:#CCCC00;stroke-width:2.0px;stroke-linecap:butt;stroke-linejoin:miter;stroke-opacity:1"/>
<path class="bond-19 atom-19 atom-20" d="M 1020.1,224.9 L 1017.0,219.5" style="fill:none;fill-rule:evenodd;stroke:#CCCC00;stroke-width:2.0px;stroke-linecap:butt;stroke-linejoin:miter;stroke-opacity:1"/>
<path class="bond-19 atom-19 atom-20" d="M 1017.0,219.5 L 1013.9,214.2" style="fill:none;fill-rule:evenodd;stroke:#FF0000;stroke-width:2.0px;stroke-linecap:butt;stroke-linejoin:miter;stroke-opacity:1"/>
<path class="bond-19 atom-19 atom-20" d="M 1016.3,227.0 L 1013.2,221.7" style="fill:none;fill-rule:evenodd;stroke:#CCCC00;stroke-width:2.0px;stroke-linecap:butt;stroke-linejoin:miter;stroke-opacity:1"/>
<path class="bond-19 atom-19 atom-20" d="M 1013.2,221.7 L 1010.2,216.4" style="fill:none;fill-rule:evenodd;stroke:#FF0000;stroke-width:2.0px;stroke-linecap:butt;stroke-linejoin:miter;stroke-opacity:1"/>
<path class="bond-20 atom-19 atom-21" d="M 1024.6,241.5 L 1027.7,246.8" style="fill:none;fill-rule:evenodd;stroke:#CCCC00;stroke-width:2.0px;stroke-linecap:butt;stroke-linejoin:miter;stroke-opacity:1"/>
<path class="bond-20 atom-19 atom-21" d="M 1027.7,246.8 L 1030.7,252.0" style="fill:none;fill-rule:evenodd;stroke:#FF0000;stroke-width:2.0px;stroke-linecap:butt;stroke-linejoin:miter;stroke-opacity:1"/>
<path class="bond-20 atom-19 atom-21" d="M 1028.4,239.4 L 1031.4,244.6" style="fill:none;fill-rule:evenodd;stroke:#CCCC00;stroke-width:2.0px;stroke-linecap:butt;stroke-linejoin:miter;stroke-opacity:1"/>
<path class="bond-20 atom-19 atom-21" d="M 1031.4,244.6 L 1034.4,249.9" style="fill:none;fill-rule:evenodd;stroke:#FF0000;stroke-width:2.0px;stroke-linecap:butt;stroke-linejoin:miter;stroke-opacity:1"/>
<path class="bond-21 atom-19 atom-22" d="M 1017.4,235.8 L 1010.1,240.0" style="fill:none;fill-rule:evenodd;stroke:#CCCC00;stroke-width:2.0px;stroke-linecap:butt;stroke-linejoin:miter;stroke-opacity:1"/>
<path class="bond-21 atom-19 atom-22" d="M 1010.1,240.0 L 1002.8,244.2" style="fill:none;fill-rule:evenodd;stroke:#0000FF;stroke-width:2.0px;stroke-linecap:butt;stroke-linejoin:miter;stroke-opacity:1"/>
<path class="bond-22 atom-5 atom-1" d="M 1075.6,76.3 L 1086.7,75.1" style="fill:none;fill-rule:evenodd;stroke:#FF0000;stroke-width:2.0px;stroke-linecap:butt;stroke-linejoin:miter;stroke-opacity:1"/>
<path class="bond-22 atom-5 atom-1" d="M 1086.7,75.1 L 1097.8,74.0" style="fill:none;fill-rule:evenodd;stroke:#000000;stroke-width:2.0px;stroke-linecap:butt;stroke-linejoin:miter;stroke-opacity:1"/>
<path class="bond-23 atom-17 atom-12" d="M 1097.5,189.8 L 1072.5,175.2" style="fill:none;fill-rule:evenodd;stroke:#000000;stroke-width:2.0px;stroke-linecap:butt;stroke-linejoin:miter;stroke-opacity:1"/>
<path d="M 1103.5,47.1 L 1103.8,45.7 L 1102.6,44.9" style="fill:none;stroke:#000000;stroke-width:2.0px;stroke-linecap:butt;stroke-linejoin:miter;stroke-opacity:1;"/>
<path d="M 1080.0,31.9 L 1078.8,31.2 L 1077.7,32.2" style="fill:none;stroke:#000000;stroke-width:2.0px;stroke-linecap:butt;stroke-linejoin:miter;stroke-opacity:1;"/>
<path d="M 1058.3,49.5 L 1057.2,50.5 L 1057.4,51.0" style="fill:none;stroke:#000000;stroke-width:2.0px;stroke-linecap:butt;stroke-linejoin:miter;stroke-opacity:1;"/>
<path d="M 1097.7,101.5 L 1097.7,102.9 L 1097.3,103.2" style="fill:none;stroke:#000000;stroke-width:2.0px;stroke-linecap:butt;stroke-linejoin:miter;stroke-opacity:1;"/>
<path d="M 1048.6,188.9 L 1047.4,189.7 L 1047.4,191.1" style="fill:none;stroke:#000000;stroke-width:2.0px;stroke-linecap:butt;stroke-linejoin:miter;stroke-opacity:1;"/>
<path d="M 1096.3,219.4 L 1097.5,218.7 L 1097.5,217.2" style="fill:none;stroke:#000000;stroke-width:2.0px;stroke-linecap:butt;stroke-linejoin:miter;stroke-opacity:1;"/>
<path d="M 1097.5,191.2 L 1097.5,189.8 L 1096.3,189.0" style="fill:none;stroke:#000000;stroke-width:2.0px;stroke-linecap:butt;stroke-linejoin:miter;stroke-opacity:1;"/>
<path class="atom-5" d="M 1063.4 77.0 Q 1063.4 74.0, 1064.8 72.4 Q 1066.3 70.7, 1069.0 70.7 Q 1071.7 70.7, 1073.2 72.4 Q 1074.6 74.0, 1074.6 77.0 Q 1074.6 80.0, 1073.2 81.7 Q 1071.7 83.4, 1069.0 83.4 Q 1066.3 83.4, 1064.8 81.7 Q 1063.4 80.0, 1063.4 77.0 M 1069.0 82.0 Q 1070.9 82.0, 1071.9 80.7 Q 1072.9 79.5, 1072.9 77.0 Q 1072.9 74.6, 1071.9 73.4 Q 1070.9 72.1, 1069.0 72.1 Q 1067.1 72.1, 1066.1 73.3 Q 1065.1 74.6, 1065.1 77.0 Q 1065.1 79.5, 1066.1 80.7 Q 1067.1 82.0, 1069.0 82.0 " fill="#FF0000"/>
<path class="atom-7" d="M 1069.9 111.2 L 1073.9 117.7 Q 1074.3 118.4, 1075.0 119.5 Q 1075.6 120.7, 1075.7 120.7 L 1075.7 111.2 L 1077.3 111.2 L 1077.3 123.5 L 1075.6 123.5 L 1071.3 116.4 Q 1070.8 115.5, 1070.2 114.6 Q 1069.7 113.6, 1069.6 113.3 L 1069.6 123.5 L 1068.0 123.5 L 1068.0 111.2 L 1069.9 111.2 " fill="#0000FF"/>
<path class="atom-9" d="M 1069.1 150.5 Q 1069.2 150.6, 1069.8 150.8 Q 1070.4 151.0, 1071.0 151.2 Q 1071.6 151.3, 1072.3 151.3 Q 1073.4 151.3, 1074.1 150.8 Q 1074.8 150.2, 1074.8 149.2 Q 1074.8 148.5, 1074.4 148.1 Q 1074.1 147.7, 1073.6 147.5 Q 1073.1 147.3, 1072.2 147.0 Q 1071.1 146.7, 1070.5 146.4 Q 1069.8 146.0, 1069.3 145.4 Q 1068.9 144.7, 1068.9 143.6 Q 1068.9 142.1, 1069.9 141.1 Q 1071.0 140.2, 1073.1 140.2 Q 1074.5 140.2, 1076.1 140.8 L 1075.7 142.2 Q 1074.2 141.6, 1073.1 141.6 Q 1071.9 141.6, 1071.3 142.1 Q 1070.6 142.6, 1070.6 143.4 Q 1070.6 144.1, 1071.0 144.5 Q 1071.3 144.9, 1071.8 145.1 Q 1072.3 145.3, 1073.1 145.6 Q 1074.2 145.9, 1074.9 146.3 Q 1075.6 146.6, 1076.0 147.3 Q 1076.5 148.0, 1076.5 149.2 Q 1076.5 150.9, 1075.4 151.8 Q 1074.2 152.7, 1072.3 152.7 Q 1071.3 152.7, 1070.4 152.5 Q 1069.6 152.3, 1068.6 151.9 L 1069.1 150.5 " fill="#CCCC00"/>
<path class="atom-10" d="M 1038.0 146.3 Q 1038.0 143.3, 1039.4 141.7 Q 1040.9 140.0, 1043.6 140.0 Q 1046.4 140.0, 1047.8 141.7 Q 1049.3 143.3, 1049.3 146.3 Q 1049.3 149.2, 1047.8 150.9 Q 1046.3 152.6, 1043.6 152.6 Q 1040.9 152.6, 1039.4 150.9 Q 1038.0 149.3, 1038.0 146.3 M 1043.6 151.2 Q 1045.5 151.2, 1046.5 150.0 Q 1047.5 148.7, 1047.5 146.3 Q 1047.5 143.8, 1046.5 142.6 Q 1045.5 141.4, 1043.6 141.4 Q 1041.8 141.4, 1040.7 142.6 Q 1039.7 143.8, 1039.7 146.3 Q 1039.7 148.7, 1040.7 150.0 Q 1041.8 151.2, 1043.6 151.2 " fill="#FF0000"/>
<path class="atom-11" d="M 1095.9 146.4 Q 1095.9 143.4, 1097.3 141.8 Q 1098.8 140.1, 1101.5 140.1 Q 1104.2 140.1, 1105.7 141.8 Q 1107.2 143.4, 1107.2 146.4 Q 1107.2 149.4, 1105.7 151.1 Q 1104.2 152.8, 1101.5 152.8 Q 1098.8 152.8, 1097.3 151.1 Q 1095.9 149.4, 1095.9 146.4 M 1101.5 151.4 Q 1103.4 151.4, 1104.4 150.1 Q 1105.4 148.9, 1105.4 146.4 Q 1105.4 144.0, 1104.4 142.8 Q 1103.4 141.5, 1101.5 141.5 Q 1099.6 141.5, 1098.6 142.7 Q 1097.6 144.0, 1097.6 146.4 Q 1097.6 148.9, 1098.6 150.1 Q 1099.6 151.4, 1101.5 151.4 " fill="#FF0000"/>
<path class="atom-18" d="M 1067.6 262.5 Q 1067.6 259.4, 1069.0 257.8 Q 1070.4 256.2, 1073.2 256.2 Q 1075.7 256.2, 1077.1 258.0 L 1075.9 258.9 Q 1074.9 257.6, 1073.2 257.6 Q 1071.3 257.6, 1070.3 258.9 Q 1069.4 260.1, 1069.4 262.5 Q 1069.4 264.9, 1070.4 266.2 Q 1071.4 267.4, 1073.4 267.4 Q 1074.7 267.4, 1076.3 266.6 L 1076.8 267.9 Q 1076.1 268.3, 1075.2 268.6 Q 1074.2 268.8, 1073.1 268.8 Q 1070.4 268.8, 1069.0 267.2 Q 1067.6 265.5, 1067.6 262.5 " fill="#00CC00"/>
<path class="atom-18" d="M 1078.3 255.5 L 1079.9 255.5 L 1079.9 268.7 L 1078.3 268.7 L 1078.3 255.5 " fill="#00CC00"/>
<path class="atom-19" d="M 1018.8 237.2 Q 1018.9 237.3, 1019.5 237.5 Q 1020.1 237.8, 1020.7 237.9 Q 1021.3 238.1, 1022.0 238.1 Q 1023.1 238.1, 1023.8 237.5 Q 1024.5 236.9, 1024.5 236.0 Q 1024.5 235.3, 1024.1 234.9 Q 1023.8 234.4, 1023.3 234.2 Q 1022.8 234.0, 1021.9 233.7 Q 1020.8 233.4, 1020.1 233.1 Q 1019.5 232.8, 1019.0 232.1 Q 1018.6 231.5, 1018.6 230.3 Q 1018.6 228.8, 1019.6 227.8 Q 1020.7 226.9, 1022.8 226.9 Q 1024.2 226.9, 1025.8 227.6 L 1025.4 228.9 Q 1023.9 228.3, 1022.8 228.3 Q 1021.6 228.3, 1021.0 228.8 Q 1020.3 229.3, 1020.3 230.1 Q 1020.3 230.8, 1020.6 231.2 Q 1021.0 231.6, 1021.5 231.8 Q 1022.0 232.0, 1022.8 232.3 Q 1023.9 232.7, 1024.6 233.0 Q 1025.2 233.4, 1025.7 234.1 Q 1026.2 234.8, 1026.2 236.0 Q 1026.2 237.7, 1025.1 238.6 Q 1023.9 239.5, 1022.0 239.5 Q 1020.9 239.5, 1020.1 239.2 Q 1019.3 239.0, 1018.3 238.6 L 1018.8 237.2 " fill="#CCCC00"/>
<path class="atom-20" d="M 1002.2 208.0 Q 1002.2 205.0, 1003.6 203.4 Q 1005.1 201.7, 1007.8 201.7 Q 1010.6 201.7, 1012.0 203.4 Q 1013.5 205.0, 1013.5 208.0 Q 1013.5 210.9, 1012.0 212.7 Q 1010.5 214.3, 1007.8 214.3 Q 1005.1 214.3, 1003.6 212.7 Q 1002.2 211.0, 1002.2 208.0 M 1007.8 212.9 Q 1009.7 212.9, 1010.7 211.7 Q 1011.7 210.4, 1011.7 208.0 Q 1011.7 205.5, 1010.7 204.3 Q 1009.7 203.1, 1007.8 203.1 Q 1006.0 203.1, 1004.9 204.3 Q 1003.9 205.5, 1003.9 208.0 Q 1003.9 210.4, 1004.9 211.7 Q 1006.0 212.9, 1007.8 212.9 " fill="#FF0000"/>
<path class="atom-21" d="M 1031.0 258.1 Q 1031.0 255.2, 1032.5 253.5 Q 1033.9 251.9, 1036.7 251.9 Q 1039.4 251.9, 1040.9 253.5 Q 1042.3 255.2, 1042.3 258.1 Q 1042.3 261.1, 1040.8 262.8 Q 1039.4 264.5, 1036.7 264.5 Q 1034.0 264.5, 1032.5 262.8 Q 1031.0 261.2, 1031.0 258.1 M 1036.7 263.1 Q 1038.6 263.1, 1039.6 261.9 Q 1040.6 260.6, 1040.6 258.1 Q 1040.6 255.7, 1039.6 254.5 Q 1038.6 253.3, 1036.7 253.3 Q 1034.8 253.3, 1033.8 254.5 Q 1032.8 255.7, 1032.8 258.1 Q 1032.8 260.6, 1033.8 261.9 Q 1034.8 263.1, 1036.7 263.1 " fill="#FF0000"/>
<path class="atom-22" d="M 973.4 241.3 L 975.1 241.3 L 975.1 246.5 L 981.4 246.5 L 981.4 241.3 L 983.1 241.3 L 983.1 253.6 L 981.4 253.6 L 981.4 247.9 L 975.1 247.9 L 975.1 253.6 L 973.4 253.6 L 973.4 241.3 " fill="#0000FF"/>
<path class="atom-22" d="M 985.5 253.2 Q 985.8 252.4, 986.5 252.0 Q 987.2 251.5, 988.2 251.5 Q 989.4 251.5, 990.1 252.2 Q 990.8 252.9, 990.8 254.0 Q 990.8 255.2, 989.9 256.4 Q 989.0 257.5, 987.2 258.8 L 990.9 258.8 L 990.9 259.7 L 985.4 259.7 L 985.4 259.0 Q 987.0 257.9, 987.8 257.1 Q 988.8 256.3, 989.2 255.6 Q 989.6 254.8, 989.6 254.1 Q 989.6 253.3, 989.2 252.9 Q 988.8 252.4, 988.2 252.4 Q 987.5 252.4, 987.1 252.7 Q 986.6 253.0, 986.3 253.6 L 985.5 253.2 " fill="#0000FF"/>
<path class="atom-22" d="M 994.4 241.3 L 998.5 247.8 Q 998.9 248.4, 999.5 249.6 Q 1000.2 250.8, 1000.2 250.8 L 1000.2 241.3 L 1001.8 241.3 L 1001.8 253.6 L 1000.1 253.6 L 995.8 246.5 Q 995.3 245.6, 994.8 244.7 Q 994.3 243.7, 994.1 243.4 L 994.1 253.6 L 992.5 253.6 L 992.5 241.3 L 994.4 241.3 " fill="#0000FF"/>
</svg>